# xmcd
#
# Track frame offsets:
# 150
# 23424
# 37199
# 48692
# 58728
# 68310
# 81845
# 104987
# 115148
# 131507
# 146150
# 157239
# 169851
#
# Disc length: 2389 seconds
#
# Revision: 0
# Processed by: cddbd v1.4PL0 Copyright (c) Steve Scherf et al.
# Submitted via: Audion 3.0.2 (http://www.panic.com/audion/)
#
DISCID=bd09530d
DTITLE=D Lo and the Dirty Projectors - The Glad Fact
DYEAR=1900
DGENRE=
TTITLE0=The Glad Fact
TTITLE1=My Offwhite Flag
TTITLE2=Like Fake Blood In Crisp October
TTITLE3=Boredom Is A Product
TTITLE4=Two Brown Finches
TTITLE5=Three Brown Finches
TTITLE6=Angus Dei at Miami
TTITLE7=The Klarinettist (to hank)
TTITLE8=Her Freezings and Thawings
TTITLE9=Maybe Rhode Island
TTITLE10=Lit From Below
TTITLE11=To An Imaginary Love
TTITLE12=The Highway Is A Foggy Knife
EXTD=
EXTT0=
EXTT1=
EXTT2=
EXTT3=
EXTT4=
EXTT5=
EXTT6=
EXTT7=
EXTT8=
EXTT9=
EXTT10=
EXTT11=
EXTT12=
PLAYORDER=
